<svg preserveAspectRatio="none" width="100%" height="100%" overflow="visible" style="display: block;" viewBox="0 0 56 21" fill="none" xmlns="http://www.w3.org/2000/svg">
<g id="Frame" clip-path="url(#clip0_3787_7649)">
<path id="Vector" fill-rule="evenodd" clip-rule="evenodd" d="M49.2623 4.89785V8.86318H55.9443V10.7552H49.2623V15.8551H55.9443V17.7442H47.341V3.00584H55.9998V4.89785H49.2623Z" fill="var(--fill-0, #292670)"/>
<path id="Vector_2" fill-rule="evenodd" clip-rule="evenodd" d="M37.7586 4.89785V9.24334L39.9664 9.26088C40.5747 9.26673 41.4081 9.23457 41.9813 9.00647C42.379 8.84856 42.6977 8.59707 42.9317 8.23739C43.1656 7.87185 43.2767 7.47415 43.2767 7.04135C43.2767 6.61733 43.1656 6.23133 42.9317 5.87749C42.7065 5.53535 42.4082 5.28678 42.0281 5.13472C41.49 4.92125 40.5981 4.90078 40.0249 4.90078H37.7586V4.89785ZM40.5747 11.1207L45.7039 17.7442H43.3147L38.1914 11.1324H37.7557V17.7442H35.8344V3.00584H38.9195C39.5863 3.00584 40.2589 3.01462 40.9227 3.05556C41.335 3.07895 41.7853 3.11404 42.1889 3.20762C43.0662 3.40939 43.8089 3.84219 44.3879 4.53817C44.9874 5.25754 45.2389 6.11728 45.2389 7.0472C45.2389 7.82214 45.0635 8.56198 44.6541 9.22287C44.2505 9.87498 43.6773 10.3429 42.9784 10.6528C42.2649 10.9687 41.3906 11.0886 40.5747 11.1207Z" fill="var(--fill-0, #292670)"/>
<path id="Vector_3" fill-rule="evenodd" clip-rule="evenodd" d="M14.5132 5.95445L13.0014 7.11539L12.8493 6.91946C12.2732 6.16792 11.5626 5.56844 10.7087 5.15612C9.84313 4.74087 8.91321 4.55664 7.95405 4.55664C6.87499 4.55664 5.86026 4.81105 4.91864 5.34327C4.01212 5.85502 3.28104 6.54808 2.76052 7.44876C2.23123 8.36698 1.99436 9.37001 1.99436 10.4286C1.99436 12.0574 2.53535 13.4552 3.70507 14.5986C4.90402 15.7684 6.37201 16.2713 8.03885 16.2713C9.9952 16.2713 11.5831 15.4935 12.8551 14.0138L13.0072 13.8354L14.5191 14.9817L14.3641 15.1806C13.6242 16.1222 12.7031 16.8445 11.6152 17.3475C10.4602 17.8855 9.22026 18.1107 7.95112 18.1107C5.56198 18.1107 3.44773 17.365 1.86569 15.5344C0.579008 14.0401 0 12.268 0 10.2999C0 8.17106 0.742768 6.3463 2.26924 4.86077C3.83666 3.33721 5.76084 2.65585 7.9365 2.65585C9.22903 2.65585 10.4865 2.89857 11.6474 3.46881C12.744 4.00687 13.6593 4.77011 14.3728 5.75852L14.5132 5.95445Z" fill="var(--fill-0, #292670)"/>
<path id="Vector_4" fill-rule="evenodd" clip-rule="evenodd" d="M24.6195 3.61441C28.3392 3.61441 31.3571 6.62935 31.3571 10.352C31.3571 14.0717 28.3421 17.0895 24.6195 17.0895C20.8969 17.0895 17.882 14.0717 17.882 10.352C17.882 6.62935 20.8969 3.61441 24.6195 3.61441ZM24.6195 1.22527C29.6581 1.22527 33.7433 5.3105 33.7433 10.349C33.7433 15.3876 29.6581 19.4728 24.6195 19.4728C19.581 19.4728 15.4958 15.3876 15.4958 10.349C15.4929 5.3105 19.5781 1.22527 24.6195 1.22527Z" fill="var(--fill-0, #BA141A)"/>
<path id="Vector_5" fill-rule="evenodd" clip-rule="evenodd" d="M24.6195 5.56199C27.266 5.56199 29.4095 7.70549 29.4095 10.352C29.4095 12.9984 27.266 15.1419 24.6195 15.1419C21.9731 15.1419 19.8296 12.9955 19.8296 10.352C19.8296 7.70841 21.9731 5.56199 24.6195 5.56199Z" fill="var(--fill-0, #292670)"/>
<path id="Vector_6" d="M14.3143 10.2964H15.5893H14.3143Z" fill="var(--fill-0, #BA141A)"/>
<path id="Vector_7" d="M33.6265 10.2911H34.8868H33.6265Z" fill="var(--fill-0, #BA141A)"/>
<path id="Vector_8" d="M24.8388 1.2282H24.3973V19.4728H24.8388V1.2282Z" fill="var(--fill-0, white)"/>
<path id="Vector_9" d="M24.8388 0H24.3973V1.2282H24.8388V0Z" fill="var(--fill-0, #BA141A)"/>
<path id="Vector_10" d="M24.8388 19.4728H24.3973V20.701H24.8388V19.4728Z" fill="var(--fill-0, #BA141A)"/>
<path id="Vector_11" d="M33.7407 10.1294H15.4961V10.571H33.7407V10.1294Z" fill="var(--fill-0, white)"/>
<path id="Vector_12" d="M15.4955 10.1294H14.2673V10.571H15.4955V10.1294Z" fill="var(--fill-0, #BA141A)"/>
<path id="Vector_13" d="M34.9684 10.1294H33.7402V10.571H34.9684V10.1294Z" fill="var(--fill-0, #BA141A)"/>
</g>
<defs>
<clipPath id="clip0_3787_7649">
<rect width="56" height="20.701" fill="white"/>
</clipPath>
</defs>
</svg>
