<svg preserveAspectRatio="none" width="100%" height="100%" overflow="visible" style="display: block;" viewBox="0 0 150 32" fill="none" xmlns="http://www.w3.org/2000/svg">
<g id="Marker logo 1">
<path id="Vector" d="M26.6055 0H0.917431C0.410748 0 0 0.367357 0 0.820513V5.68632C0 6.13949 0.410747 6.50683 0.917431 6.50683H7.99381C8.17252 6.50683 8.34739 6.55352 8.49683 6.64119L13.3078 9.46232C13.6158 9.64291 14.0147 9.64131 14.3209 9.45817L19.0237 6.64529C19.1746 6.55504 19.3521 6.50683 19.5337 6.50683H26.6055C27.1122 6.50683 27.5229 6.13949 27.5229 5.68632V0.820513C27.5229 0.367356 27.1122 0 26.6055 0Z" fill="url(#paint0_linear_3787_7666)"/>
<path id="Vector_2" d="M8.01835 11.654H5.16009C4.65339 11.654 4.24266 12.0214 4.24266 12.4745V23.9143C4.24266 24.1466 4.35279 24.368 4.54571 24.5236L13.1979 31.5017C13.5485 31.7844 14.0818 31.7831 14.4306 31.4985L22.9811 24.5233C23.1717 24.3678 23.2803 24.1478 23.2803 23.917V12.4745C23.2803 12.0214 22.8695 11.654 22.3628 11.654H19.5089C19.3428 11.654 19.18 11.6943 19.0375 11.7706L14.2826 14.3175C13.9949 14.4717 13.636 14.4731 13.3467 14.3211L8.48284 11.767C8.34202 11.693 8.18165 11.654 8.01835 11.654Z" fill="url(#paint1_linear_3787_7666)"/>
<path id="Vector_3" d="M42.1203 7.11541H45.5338L50.5601 19.9639L55.5862 7.11541H58.9995L51.9307 24.6154H49.189L42.1203 7.11541ZM40.2792 7.11541H43.6792L44.2974 19.6394V24.6154H40.2792V7.11541ZM57.4408 7.11541H60.8541V24.6154H56.8225V19.6394L57.4408 7.11541ZM72.5862 10.1082L67.2647 24.6154H62.9775L70.2482 7.11541H72.9761L72.5862 10.1082ZM77.0078 24.6154L71.6725 10.1082L71.2427 7.11541H73.9972L81.3083 24.6154H77.0078ZM76.7661 18.101V20.9255H66.4312V18.101H76.7661ZM83.1225 7.11541H90.4197C91.9161 7.11541 93.2018 7.31569 94.2766 7.71635C95.361 8.117 96.194 8.70995 96.7766 9.49518C97.3587 10.2805 97.65 11.246 97.65 12.3918C97.65 13.3293 97.4706 14.1346 97.1124 14.8077C96.7628 15.4727 96.2656 16.0297 95.6206 16.4784C94.9844 16.9191 94.2367 17.2716 93.3766 17.536L92.0995 18.137H85.7564L85.7298 15.3245H90.4468C91.1546 15.3245 91.7413 15.2123 92.2073 14.988C92.6729 14.7636 93.0225 14.4511 93.2555 14.0505C93.4972 13.6498 93.6183 13.1851 93.6183 12.6562C93.6183 12.0953 93.5018 11.6106 93.2688 11.2019C93.0358 10.7933 92.6821 10.4808 92.2073 10.2644C91.7326 10.0481 91.1367 9.9399 90.4197 9.9399H87.1541V24.6154H83.1225V7.11541ZM94.0619 24.6154L89.6 16.8149L93.8601 16.7909L98.3757 24.4471V24.6154H94.0619ZM104.786 7.11541V24.6154H100.755V7.11541H104.786ZM116.505 7.11541L108.75 15.7572L104.275 20.0601L103.55 16.6466L106.573 12.9447L111.559 7.11541H116.505ZM111.922 24.6154L106.157 16.5264L109.14 14.2909L116.693 24.6154H111.922ZM131.382 21.8029V24.6154H120.967V21.8029H131.382ZM122.283 7.11541V24.6154H118.252V7.11541H122.283ZM130.024 14.2428V16.9832H120.967V14.2428H130.024ZM131.368 7.11541V9.9399H120.967V7.11541H131.368ZM133.733 7.11541H141.031C142.527 7.11541 143.813 7.31569 144.888 7.71635C145.972 8.117 146.805 8.70995 147.388 9.49518C147.97 10.2805 148.261 11.246 148.261 12.3918C148.261 13.3293 148.082 14.1346 147.723 14.8077C147.374 15.4727 146.877 16.0297 146.232 16.4784C145.595 16.9191 144.848 17.2716 143.988 17.536L142.711 18.137H136.367L136.341 15.3245H141.058C141.766 15.3245 142.352 15.2123 142.818 14.988C143.284 14.7636 143.633 14.4511 143.867 14.0505C144.108 13.6498 144.229 13.1851 144.229 12.6562C144.229 12.0953 144.113 11.6106 143.88 11.2019C143.647 10.7933 143.293 10.4808 142.818 10.2644C142.344 10.0481 141.748 9.9399 141.031 9.9399H137.765V24.6154H133.733V7.11541ZM144.673 24.6154L140.211 16.8149L144.471 16.7909L148.987 24.4471V24.6154H144.673Z" fill="var(--fill-0, #212121)"/>
</g>
<defs>
<linearGradient id="paint0_linear_3787_7666" x1="13.7615" y1="0" x2="13.7615" y2="32" gradientUnits="userSpaceOnUse">
<stop stop-color="#2C5ED4"/>
<stop offset="1" stop-color="#0C2E7E"/>
</linearGradient>
<linearGradient id="paint1_linear_3787_7666" x1="13.7615" y1="0" x2="13.7615" y2="32" gradientUnits="userSpaceOnUse">
<stop stop-color="#2C5ED4"/>
<stop offset="1" stop-color="#0C2E7E"/>
</linearGradient>
</defs>
</svg>
